<svg width="204" height="204" viewBox="0 0 204 204" fill="none" xmlns="http://www.w3.org/2000/svg">
<path fill-rule="evenodd" clip-rule="evenodd" d="M32.0814 74.2632C32.0451 74.3443 32.021 74.4304 32.0099 74.5187C30.5386 82.8163 31.0931 91.3466 33.6263 99.384C36.1595 107.421 40.5964 114.728 46.5596 120.682C53.0912 127.22 61.2363 131.913 70.168 134.286C79.0997 136.658 88.5001 136.625 97.4149 134.19C101.999 132.948 107.314 134.052 110.82 137.977L110.83 137.987L140.17 170.567C141.132 171.635 141.631 173.041 141.556 174.477C141.481 175.913 140.839 177.26 139.771 178.222C138.703 179.185 137.297 179.683 135.861 179.608C134.425 179.534 133.078 178.892 132.116 177.824L102.755 145.223L102.735 145.203C102.306 144.712 101.396 144.344 100.261 144.651C89.5035 147.588 78.1601 147.626 67.3824 144.763C56.6046 141.9 46.776 136.237 38.8938 128.348C31.6976 121.162 26.3429 112.345 23.2849 102.645C20.2268 92.9463 19.5557 82.6521 21.3288 72.638C21.6841 70.4684 22.671 68.4518 24.1663 66.8402C25.6616 65.2285 27.5988 64.0935 29.7357 63.577C33.7015 62.5957 38.1374 63.7098 41.3315 66.9039L65.4227 90.9951C65.641 91.2135 65.9115 91.3723 66.2085 91.4564C66.5055 91.5405 66.8191 91.5471 67.1194 91.4755L85.6963 87.0549C86.3607 86.9016 86.882 86.3803 87.0353 85.7159L91.4559 67.139C91.5275 66.8387 91.5209 66.5251 91.4368 66.2281C91.3527 65.9311 91.1939 65.6605 90.9755 65.4423L66.8895 41.3562C63.6903 38.157 62.5762 33.7211 63.5625 29.7502C64.0796 27.6149 65.2142 25.6793 66.8248 24.1851C68.4354 22.6908 70.4504 21.7042 72.6184 21.3484C82.6337 19.5751 92.9291 20.2465 102.629 23.3055C112.329 26.3645 121.148 31.7207 128.334 38.9185C136.22 46.8018 141.882 56.6309 144.743 67.4086C147.604 78.1863 147.564 89.529 144.626 100.286C144.325 101.416 144.693 102.325 145.178 102.76L145.199 102.78L177.804 132.135C178.333 132.612 178.763 133.188 179.069 133.83C179.375 134.473 179.552 135.17 179.589 135.88C179.626 136.591 179.522 137.303 179.285 137.973C179.047 138.644 178.679 139.262 178.203 139.791C177.726 140.32 177.15 140.749 176.508 141.056C175.865 141.362 175.168 141.539 174.457 141.576C173.746 141.613 173.035 141.509 172.364 141.271C171.693 141.034 171.076 140.666 170.547 140.189L137.967 110.85L137.957 110.839C134.032 107.334 132.923 102.024 134.165 97.4395C136.602 88.5245 136.636 79.1234 134.265 70.1907C131.893 61.258 127.201 53.1118 120.663 46.5792C114.708 40.616 107.402 36.1791 99.3644 33.6459C91.327 31.1127 82.7968 30.5582 74.4991 32.0295C74.4109 32.0406 74.3248 32.0647 74.2436 32.101L74.1873 32.147C74.172 32.1623 74.1158 32.2186 74.08 32.3565C74.0085 32.653 74.0545 33.1896 74.5553 33.6904L98.6363 57.7714C100.163 59.2989 101.273 61.192 101.861 63.2701C102.449 65.3483 102.494 67.5423 101.994 69.6432L97.5733 88.2201C97.031 90.4965 95.8678 92.5779 94.213 94.2326C92.5583 95.8874 90.477 97.0506 88.2005 97.5929L69.6287 102.019C67.529 102.519 65.3363 102.473 63.2591 101.886C61.182 101.3 59.2896 100.191 57.762 98.6661L33.6657 74.5698C33.1649 74.069 32.6283 74.023 32.337 74.0996C32.2575 74.1137 32.1834 74.1491 32.1223 74.2018L32.0763 74.258L32.0814 74.2632Z" fill="#9234EA"/>
</svg>
