<svg width="127" height="172" viewBox="0 0 127 172" fill="none" xmlns="http://www.w3.org/2000/svg">
<path d="M40.7392 132.623C40.7392 132.623 34.1867 136.439 45.4054 137.725C58.9964 139.283 65.942 139.062 80.9121 136.218C80.9121 136.218 84.8565 138.69 90.3515 140.834C56.7741 155.218 14.3718 139.991 40.7392 132.623ZM36.6305 113.852C36.6305 113.852 29.2847 119.29 40.5034 120.454C55.0234 121.948 66.485 122.076 86.3285 118.254C86.3285 118.254 89.0725 121.033 93.3813 122.555C52.8011 134.424 7.58338 123.484 36.6305 113.852ZM71.2155 81.9964C79.4901 91.5216 69.0432 100.096 69.0432 100.096C69.0432 100.096 90.0443 89.2493 80.3976 75.6725C71.387 63.0104 64.4771 56.7222 101.885 35.028C101.885 35.0209 43.1759 49.6838 71.2155 81.9964ZM115.619 146.515C115.619 146.515 120.471 150.509 110.281 153.596C90.9018 159.47 29.6206 161.235 12.6068 153.832C6.4901 151.166 17.966 147.472 21.5674 146.7C25.3332 145.886 27.484 146.036 27.484 146.036C20.6742 141.241 -16.5046 155.447 8.59807 159.52C77.0535 170.617 133.376 154.518 115.619 146.515ZM43.8905 94.3941C43.8905 94.3941 12.7211 101.797 32.8576 104.484C41.3538 105.62 58.3033 105.363 74.088 104.041C86.9931 102.955 99.941 100.632 99.941 100.632C99.941 100.632 95.3892 102.576 92.0951 104.827C60.447 113.152 -0.698437 109.279 16.9085 100.768C31.7857 93.5795 43.8905 94.3941 43.8905 94.3941ZM99.7981 125.649C131.975 108.928 117.098 92.8578 106.715 95.0301C104.178 95.5589 103.035 96.0162 103.035 96.0162C103.035 96.0162 103.978 94.5371 105.786 93.894C126.33 86.6697 142.129 115.195 99.155 126.492C99.155 126.485 99.6552 126.049 99.7981 125.649ZM80.3976 0C80.3976 0 98.2189 17.8213 63.4982 45.232C35.6587 67.2192 57.1528 79.7598 63.491 94.0797C47.2418 79.4097 35.3157 66.5118 43.3117 54.4999C55.0591 36.8573 87.5933 28.3111 80.3976 0ZM47.0489 170.953C77.9324 172.932 125.358 169.859 126.48 155.247C126.48 155.247 124.322 160.784 100.956 165.186C74.6025 170.145 42.0826 169.566 22.8036 166.387C22.8036 166.38 26.7552 169.652 47.0489 170.953Z" fill="#9234EA"/>
</svg>
