<svg width="127" height="282" viewBox="0 0 127 282" fill="none" xmlns="http://www.w3.org/2000/svg">
<path d="M61.4919 208.452C61.4919 208.452 61.4919 111.084 64.7212 111.096C67.2227 111.096 70.4758 236.695 70.4758 236.695C66.0013 236.166 61.4922 216.026 61.4922 208.451L61.4919 208.452ZM124.156 112.211C115.521 74.4666 96.5976 42.0198 70.516 16.9714L70.4523 16.9106C67.2738 12.062 64.3743 6.49382 62.0443 0.637282L61.8205 0C61.8284 0.190891 61.8323 0.415261 61.8323 0.640806C61.8323 5.94699 59.4535 10.6975 55.7032 13.8839L55.6785 13.9045C22.0946 42.4183 0.722446 84.4326 0.0146803 131.456L0.0132105 131.577C0.00498752 132.158 0 132.843 0 133.53C0 180.116 22.4135 221.466 57.0459 247.386L57.4171 247.652L58.2394 248.239C59.7509 259.416 61.0426 270.62 62.1145 281.85H67.7631C69.3255 267.838 71.4317 255.57 74.1858 243.548L73.7524 245.797C77.4709 243.209 80.7296 240.535 83.7645 237.63L83.7345 237.658C110.058 213.253 126.48 178.486 126.48 139.883C126.48 139.312 126.476 138.742 126.469 138.173L126.47 138.259C126.443 129.036 125.602 120.028 124.016 111.28L124.157 112.212L124.156 112.211Z" fill="#9234EA"/>
</svg>
