<svg width="124" height="124" viewBox="0 0 124 124" fill="none" xmlns="http://www.w3.org/2000/svg">
<mask id="mask0_1_10" style="mask-type:luminance" maskUnits="userSpaceOnUse" x="0" y="0" width="124" height="124">
<path d="M98.7589 0.781408H25.7211C11.9473 0.781408 0.781408 11.9473 0.781408 25.7211V98.7589C0.781408 112.533 11.9473 123.699 25.7211 123.699H98.7589C112.533 123.699 123.699 112.533 123.699 98.7589V25.7211C123.699 11.9473 112.533 0.781408 98.7589 0.781408Z" fill="white"/>
</mask>
<g mask="url(#mask0_1_10)">
<path d="M-6.34423 58.6772V123.699H58.6772H123.699V58.6772V-6.34422H58.6772H-6.34423V58.6772ZM98.4538 53.4961C101.756 54.3218 104.275 55.7873 106.587 58.1818C107.784 59.4616 109.559 61.7941 109.704 62.3514C109.745 62.5165 104.089 66.3146 100.662 68.4407C100.539 68.5233 100.043 67.9866 99.4859 67.1609C97.8139 64.7252 96.0593 63.6725 93.3759 63.4867C89.4333 63.2184 86.8944 65.2825 86.9151 68.7297C86.9151 69.7411 87.0595 70.3398 87.4724 71.1654C88.3393 72.9613 89.9494 74.0346 95.0066 76.2226C104.316 80.2271 108.3 82.8693 110.777 86.6261C113.543 90.8163 114.162 97.5043 112.284 102.479C110.22 107.887 105.1 111.561 97.8964 112.779C95.6671 113.171 90.3829 113.109 87.9884 112.676C82.7661 111.747 77.8121 109.167 74.7571 105.782C73.5599 104.461 71.2273 101.013 71.3718 100.766C71.4338 100.683 71.9704 100.353 72.5691 100.002C73.147 99.6716 75.335 98.4125 77.3992 97.2153L81.1354 95.0479L81.9198 96.2038C83.0138 97.8758 85.4082 100.167 86.8531 100.931C91.0021 103.119 96.6992 102.809 99.5065 100.291C100.704 99.1969 101.199 98.0616 101.199 96.3896C101.199 94.8828 101.013 94.2222 100.229 93.0869C99.2175 91.642 97.1533 90.4241 91.2911 87.8852C84.5825 84.9954 81.6927 83.1995 79.0506 80.351C77.5231 78.6996 76.0782 76.0575 75.4795 73.8488C74.9841 72.0117 74.8603 67.4086 75.2525 65.5509C76.6355 59.0694 81.5276 54.5488 88.587 53.2071C90.8783 52.7737 96.2038 52.9388 98.4538 53.4961ZM67.9247 58.9249L67.966 64.2504H59.5029H51.0397V88.298V112.346H45.0536H39.0676V88.298V64.2504H30.6044H22.1413V59.0281C22.1413 56.1383 22.2033 53.7232 22.2858 53.6612C22.3478 53.5787 32.648 53.5374 45.1362 53.558L67.8627 53.62L67.9247 58.9249Z" fill="#9234EA"/>
</g>
</svg>
