<svg width="127" height="127" viewBox="0 0 127 127" fill="none" xmlns="http://www.w3.org/2000/svg">
<path d="M79.05 79.05C87.7816 79.05 94.86 71.9716 94.86 63.24C94.86 54.5084 87.7816 47.43 79.05 47.43C70.3184 47.43 63.24 54.5084 63.24 63.24C63.24 71.9716 70.3184 79.05 79.05 79.05Z" stroke="#9234EA" stroke-width="10.54" stroke-linecap="round" stroke-linejoin="round"/>
<path d="M79.05 15.81H47.43C38.6984 15.81 31.62 22.8884 31.62 31.62C31.62 40.3516 38.6984 47.43 47.43 47.43H79.05C87.7816 47.43 94.86 40.3516 94.86 31.62C94.86 22.8884 87.7816 15.81 79.05 15.81Z" stroke="#9234EA" stroke-width="10.54" stroke-linecap="round" stroke-linejoin="round"/>
<path d="M47.43 47.43C43.2369 47.43 39.2156 49.0957 36.2506 52.0606C33.2857 55.0256 31.62 59.0469 31.62 63.24C31.62 67.4331 33.2857 71.4544 36.2506 74.4194C39.2156 77.3843 43.2369 79.05 47.43 79.05M47.43 79.05H63.24M47.43 79.05C44.3031 79.05 41.2464 79.9772 38.6464 81.7145C36.0465 83.4517 34.0201 85.9209 32.8235 88.8098C31.6268 91.6987 31.3138 94.8775 31.9238 97.9444C32.5338 101.011 34.0396 103.828 36.2506 106.039C38.4617 108.25 41.2788 109.756 44.3456 110.366C47.4125 110.976 50.5913 110.663 53.4802 109.467C56.3691 108.27 58.8383 106.244 60.5755 103.644C62.3128 101.044 63.24 97.9869 63.24 94.86V15.81" stroke="#9234EA" stroke-width="10.54" stroke-linecap="round" stroke-linejoin="round"/>
</svg>
