<svg width="127" height="127" viewBox="0 0 127 127" fill="none" xmlns="http://www.w3.org/2000/svg">
<path d="M124.094 57.6045L68.8714 2.38556C65.6934 -0.795186 60.5351 -0.795186 57.353 2.38556L45.8859 13.8526L60.4324 28.3991C63.813 27.257 67.689 28.023 70.384 30.718C73.0915 33.4297 73.852 37.339 72.6821 40.7307L86.7013 54.7499C90.093 53.5814 94.0064 54.3377 96.7153 57.0508C100.501 60.8352 100.501 66.9691 96.7153 70.7563C92.9282 74.5435 86.7943 74.5435 83.0057 70.7563C80.158 67.9058 79.4544 63.7231 80.8963 60.2149L67.8222 47.1408L67.8208 81.5461C68.7437 82.0041 69.6152 82.6133 70.384 83.3793C74.1698 87.1637 74.1698 93.2976 70.384 97.0876C66.5968 100.873 60.4601 100.873 56.6785 97.0876C52.8927 93.2976 52.8927 87.1637 56.6785 83.3793C57.6139 82.4454 58.6963 81.739 59.8509 81.2644V46.5385C58.6963 46.0667 57.6152 45.3645 56.6785 44.4235C53.81 41.5592 53.1203 37.3501 54.5899 33.828L40.2516 19.4869L2.3866 57.3491C-0.795533 60.5327 -0.795533 65.691 2.3866 68.8717L57.6097 124.092C60.789 127.273 65.946 127.273 69.1295 124.092L124.094 69.1284C127.275 65.9463 127.275 60.7852 124.094 57.6045Z" fill="#9234EA"/>
</svg>
