<svg width="127" height="127" viewBox="0 0 127 127" fill="none" xmlns="http://www.w3.org/2000/svg">
<path d="M92.8371 36.1258V47.8502C92.7884 52.2324 91.0425 56.4251 87.9666 59.5468C84.8907 62.6685 80.7244 64.4762 76.3433 64.5898H49.9719C46.4553 64.6596 43.1055 66.1023 40.6386 68.6095C38.1717 71.1166 36.7834 74.4893 36.7705 78.0065V103.147C36.7705 110.301 42.9925 114.511 49.9719 116.564C58.5573 119.249 67.7579 119.249 76.3433 116.564C82.9903 114.639 89.5447 110.766 89.5447 103.147V93.0814H63.1728V89.7273H102.746C110.419 89.7273 113.278 84.3748 115.947 76.3413C118.656 67.6021 118.656 58.2475 115.947 49.5082C114.05 41.8692 110.429 36.1223 102.746 36.1223L92.8371 36.1258ZM78.005 99.7911C79.004 99.7757 79.9851 100.058 80.8231 100.602C81.6612 101.146 82.3182 101.928 82.7106 102.847C83.1029 103.766 83.2128 104.78 83.0262 105.762C82.8396 106.744 82.365 107.648 81.6628 108.358C80.9607 109.069 80.0628 109.555 79.0835 109.754C78.1043 109.953 77.0881 109.855 76.1643 109.474C75.2406 109.093 74.4512 108.446 73.8967 107.615C73.3422 106.784 73.0478 105.806 73.0509 104.807C73.0466 104.152 73.1713 103.503 73.418 102.897C73.6647 102.29 74.0284 101.738 74.4885 101.272C74.9486 100.807 75.496 100.436 76.0993 100.182C76.7027 99.9277 77.3503 99.7949 78.005 99.7911Z" fill="#9234EA"/>
<path d="M62.5882 7.905C58.36 7.90955 54.1397 8.26984 49.9719 8.98206C38.7989 10.9559 36.7705 15.0875 36.7705 22.7063V32.7698H63.1732V36.1259H26.862C22.9759 36.0546 19.1896 37.3588 16.1716 39.8081C13.1537 42.2573 11.0982 45.6942 10.3682 49.5118C7.8898 58.2845 7.8898 67.5722 10.3682 76.3449C12.2448 84.1614 16.727 89.7308 24.3996 89.7308H33.4777V77.6666C33.574 73.3309 35.3455 69.2009 38.4205 66.1428C41.4956 63.0847 45.6353 61.3361 49.9715 61.2637H76.3429C78.091 61.2506 79.8193 60.8931 81.429 60.2115C83.0388 59.53 84.4984 58.5379 85.7245 57.2919C86.9505 56.0458 87.9189 54.5704 88.5744 52.9498C89.2298 51.3292 89.5594 49.5954 89.5443 47.8474V22.7071C89.3226 19.2277 87.8746 15.9395 85.4576 13.4268C83.0406 10.9141 79.8111 9.33949 76.3429 8.98285C71.7962 8.2395 67.1952 7.87895 62.5882 7.905ZM48.3098 15.9989C49.3076 15.9835 50.2874 16.2651 51.1248 16.8079C51.9621 17.3507 52.6192 18.1302 53.0124 19.0473C53.4056 19.9644 53.5173 20.9778 53.3332 21.9586C53.1491 22.9393 52.6776 23.8432 51.9785 24.5553C51.2795 25.2674 50.3845 25.7556 49.4073 25.9578C48.4301 26.16 47.4149 26.0671 46.4906 25.6909C45.5663 25.3147 44.7748 24.6721 44.2166 23.845C43.6584 23.0178 43.3588 22.0434 43.3558 21.0455C43.346 19.72 43.8618 18.4447 44.7904 17.4989C45.7189 16.553 46.9844 16.0136 48.3098 15.9989Z" fill="#9234EA"/>
</svg>
