<svg width="127" height="102" viewBox="0 0 127 102" fill="none" xmlns="http://www.w3.org/2000/svg">
<path d="M34.5179 35.3012L15.6798 50.9996L34.5179 66.698C35.7648 67.7371 36.5479 69.229 36.6949 70.8455C36.8418 72.4619 36.3406 74.0705 35.3016 75.3175C34.2625 76.5644 32.7706 77.3475 31.1541 77.4945C29.5377 77.6414 27.929 77.1402 26.6821 76.1012L2.20212 55.7012C1.51288 55.1268 0.958351 54.4079 0.577805 53.5955C0.197258 52.783 0 51.8968 0 50.9996C0 50.1024 0.197258 49.2162 0.577805 48.4037C0.958351 47.5913 1.51288 46.8724 2.20212 46.298L26.6821 25.898C27.2995 25.3835 28.0122 24.9957 28.7796 24.7566C29.5469 24.5175 30.3538 24.432 31.1541 24.5047C31.9545 24.5775 32.7328 24.8072 33.4444 25.1807C34.156 25.5543 34.7871 26.0643 35.3016 26.6817C35.8161 27.2991 36.2039 28.0118 36.443 28.7792C36.6821 29.5465 36.7676 30.3533 36.6949 31.1537C36.6221 31.9541 36.3924 32.7323 36.0189 33.444C35.6453 34.1556 35.1353 34.7867 34.5179 35.3012ZM124.278 46.298L99.7979 25.898C99.1805 25.3835 98.4678 24.9957 97.7004 24.7566C96.9331 24.5175 96.1262 24.432 95.3259 24.5047C94.5255 24.5775 93.7472 24.8072 93.0356 25.1807C92.324 25.5543 91.6929 26.0643 91.1784 26.6817C90.6639 27.2991 90.2761 28.0118 90.037 28.7792C89.7979 29.5465 89.7124 30.3533 89.7851 31.1537C89.8579 31.9541 90.0876 32.7323 90.4611 33.444C90.8347 34.1556 91.3447 34.7867 91.9621 35.3012L110.8 50.9996L91.9621 66.698C91.3447 67.2125 90.8347 67.8436 90.4611 68.5552C90.0876 69.2668 89.8579 70.0451 89.7851 70.8455C89.6382 72.4619 90.1393 74.0705 91.1784 75.3175C92.2175 76.5644 93.7094 77.3475 95.3259 77.4945C96.1262 77.5672 96.9331 77.4816 97.7004 77.2426C98.4678 77.0035 99.1805 76.6157 99.7979 76.1012L124.278 55.7012C124.967 55.1268 125.522 54.4079 125.902 53.5955C126.283 52.783 126.48 51.8968 126.48 50.9996C126.48 50.1024 126.283 49.2162 125.902 48.4037C125.522 47.5913 124.967 46.8724 124.278 46.298ZM81.6515 0.368152C80.1261 -0.186235 78.443 -0.11209 76.9722 0.574284C75.5014 1.26066 74.3635 2.50306 73.8086 4.02829L41.1686 93.7883C40.8934 94.5437 40.7698 95.3459 40.8048 96.1491C40.8398 96.9523 41.0327 97.7407 41.3725 98.4694C41.7123 99.198 42.1923 99.8525 42.7851 100.396C43.378 100.939 44.072 101.359 44.8275 101.634C45.5831 101.909 46.3854 102.032 47.1886 101.997C47.9917 101.961 48.7801 101.768 49.5085 101.428C50.2369 101.088 50.8912 100.607 51.4339 100.014C51.9766 99.4209 52.3971 98.7266 52.6714 97.9709L85.3114 8.2109C85.5861 7.45562 85.7093 6.65364 85.6741 5.85075C85.6388 5.04786 85.4457 4.25978 85.1058 3.5315C84.766 2.80323 84.286 2.14903 83.6933 1.60626C83.1006 1.06349 82.4068 0.642782 81.6515 0.368152Z" fill="#9234EA"/>
</svg>
