<svg width="127" height="76" viewBox="0 0 127 76" fill="none" xmlns="http://www.w3.org/2000/svg">
<path d="M63.24 0C46.376 0 35.836 8.432 31.62 25.296C37.944 16.864 45.322 13.702 53.754 15.81C58.5655 17.0116 62.0015 20.5003 65.8118 24.3685C72.0145 30.6609 79.187 37.944 94.86 37.944C111.724 37.944 122.264 29.512 126.48 12.648C120.156 21.08 112.778 24.242 104.346 22.134C99.5345 20.9324 96.0985 17.4437 92.2882 13.5755C86.0907 7.28314 78.9182 0 63.24 0ZM31.62 37.944C14.756 37.944 4.216 46.376 0 63.24C6.324 54.808 13.702 51.646 22.134 53.754C26.9455 54.9556 30.3815 58.4443 34.1918 62.3125C40.3945 68.6049 47.567 75.888 63.24 75.888C80.104 75.888 90.644 67.456 94.86 50.592C88.536 59.024 81.158 62.186 72.726 60.078C67.9145 58.8764 64.4784 55.3877 60.6682 51.5195C54.4707 45.2271 47.2982 37.944 31.62 37.944Z" fill="#9234EA"/>
</svg>
