<svg width="127" height="127" viewBox="0 0 127 127" fill="none" xmlns="http://www.w3.org/2000/svg">
<path d="M112.929 0H13.5514C6.06991 0 0 6.06991 0 13.5514V112.929C0 120.41 6.06991 126.48 13.5514 126.48H112.929C120.41 126.48 126.48 120.41 126.48 112.929V13.5514C126.48 6.06991 120.41 0 112.929 0ZM68.83 98.6431C68.83 110.952 61.6025 116.571 51.0719 116.571C41.5577 116.571 36.0524 111.658 33.2292 105.701L42.9129 99.8571C44.7762 103.16 46.4701 105.955 50.5638 105.955C54.4598 105.955 56.9442 104.431 56.9442 98.4737V58.0735H68.83V98.6431ZM96.9492 116.571C85.9104 116.571 78.7677 111.319 75.2951 104.431L84.9787 98.8407C87.5196 102.991 90.851 106.068 96.6951 106.068C101.607 106.068 104.769 103.612 104.769 100.196C104.769 96.1304 101.551 94.6906 96.1022 92.2909L93.1378 91.0204C84.5553 87.3785 78.8806 82.7766 78.8806 73.093C78.8806 64.1717 85.6846 57.3959 96.2716 57.3959C103.838 57.3959 109.258 60.0215 113.154 66.9102L103.894 72.8389C101.862 69.197 99.6595 67.7571 96.2434 67.7571C92.7708 67.7571 90.5687 69.9592 90.5687 72.8389C90.5687 76.3962 92.7708 77.836 97.8808 80.0664L100.845 81.3368C110.952 85.6563 116.627 90.0888 116.627 100.026C116.627 110.698 108.214 116.571 96.9492 116.571Z" fill="#9234EA"/>
</svg>
