<svg width="127" height="148" viewBox="0 0 127 148" fill="none" xmlns="http://www.w3.org/2000/svg">
<path d="M120.472 32.3039L69.2774 1.59966C67.4386 0.551315 65.3584 0 63.2417 0C61.125 0 59.0447 0.551315 57.2059 1.59966L6.00796 32.3006C4.16293 33.4313 2.64068 35.0186 1.58827 36.9094C0.535872 38.8001 -0.0111111 40.9303 0.000171059 43.0942V104.414C-0.0108981 106.579 0.536091 108.71 1.58839 110.603C2.64069 112.495 4.16281 114.084 6.00796 115.217L19.4332 123.234L19.509 123.277C26.2875 126.745 28.883 126.745 31.8902 126.745C42.4763 126.745 49.0539 119.894 49.0539 108.864V49.4083C49.06 48.666 48.7715 47.9516 48.2516 47.4218C47.7316 46.892 47.0228 46.5901 46.2805 46.5823H38.9091C38.1669 46.5901 37.458 46.892 36.9381 47.4218C36.4182 47.9516 36.1297 48.666 36.1358 49.4083V108.864C36.1626 109.715 35.969 110.558 35.5737 111.313C35.1784 112.067 34.5948 112.706 33.8796 113.169C31.9363 114.354 29.1136 114.104 25.9285 112.46L13.0632 104.717C13.0139 104.683 12.9737 104.638 12.9461 104.585C12.9185 104.532 12.9044 104.473 12.9051 104.414V43.9605C12.9072 43.891 12.9259 43.823 12.9597 43.7622C12.9935 43.7015 13.0414 43.6497 13.0994 43.6113L63.1116 12.9795C63.1489 12.961 63.1901 12.9513 63.2318 12.9513C63.2735 12.9513 63.3146 12.961 63.352 12.9795L113.394 43.6113C113.451 43.6529 113.497 43.7074 113.528 43.7705C113.56 43.8335 113.576 43.9032 113.575 43.9736V104.414C113.576 104.476 113.564 104.538 113.538 104.595C113.512 104.652 113.474 104.703 113.427 104.743L63.3421 134.601C63.2568 134.631 63.164 134.631 63.0786 134.601L50.289 127.006C49.9093 126.757 49.4707 126.614 49.0177 126.59C48.5647 126.567 48.1136 126.663 47.71 126.871L47.598 126.936C44.0671 129.028 43.1185 129.571 39.8446 130.764C39.311 130.958 38.0561 131.422 37.9474 132.664C37.8387 133.906 39.031 134.789 40.0916 135.405L57.1861 145.902C59.0075 146.993 61.0905 147.57 63.2137 147.572H63.4047C65.4748 147.539 67.5 146.963 69.2774 145.902L120.472 115.227C122.316 114.091 123.837 112.499 124.889 110.606C125.941 108.712 126.489 106.58 126.48 104.414V43.0942C126.49 40.931 125.943 38.8015 124.891 36.9115C123.838 35.0214 122.316 33.4345 120.472 32.3039Z" fill="#9234EA"/>
<path d="M80.328 94.2197C68.0456 94.2197 65.4271 90.7876 64.6497 85.2475C64.5622 84.5879 64.2407 83.9817 63.7438 83.5392C63.2469 83.0966 62.6076 82.8473 61.9423 82.8365H55.4207C54.6857 82.8521 53.9868 83.1582 53.4769 83.6878C52.967 84.2174 52.6877 84.9275 52.7 85.6625C52.7 90.4648 54.3864 106.14 80.3411 106.14C88.3713 106.14 95.051 104.262 99.6523 100.708C104.254 97.1544 106.717 91.9832 106.717 85.8206C106.717 73.4526 98.6477 70.0667 82.7554 67.8533C66.5996 65.6069 66.5996 64.464 66.5996 61.9608C66.5996 60.1591 66.5996 55.9398 78.2792 55.9398C86.5894 55.9398 91.0392 56.9905 92.4621 62.5273C92.5881 63.1411 92.92 63.6935 93.4028 64.0931C93.8855 64.4926 94.4903 64.7153 95.1169 64.7242H101.662C102.047 64.7204 102.428 64.6344 102.778 64.472C103.127 64.3095 103.439 64.0744 103.69 63.7822C104.194 63.1948 104.445 62.4325 104.389 61.661C103.542 49.9518 94.9818 44.0132 78.2891 44.0132C63.1182 44.0132 54.0637 50.8477 54.0637 62.2934C54.0637 74.8426 63.4475 78.39 77.5447 79.859C94.0134 81.5618 94.0134 84.0453 94.0134 86.2389C94.0233 89.6578 92.6037 94.2197 80.328 94.2197Z" fill="#9234EA"/>
</svg>
