<svg width="127" height="113" viewBox="0 0 127 113" fill="none" xmlns="http://www.w3.org/2000/svg">
<path d="M63.24 44.9915C61.7597 44.9915 60.2938 45.2831 58.9262 45.8496C57.5585 46.4161 56.3159 47.2464 55.2691 48.2931C54.2224 49.3399 53.392 50.5826 52.8255 51.9502C52.259 53.3179 51.9675 54.7837 51.9675 56.264C51.9675 57.7444 52.259 59.2102 52.8255 60.5778C53.392 61.9455 54.2224 63.1882 55.2691 64.2349C56.3159 65.2817 57.5585 66.112 58.9262 66.6785C60.2938 67.245 61.7597 67.5366 63.24 67.5366C64.7203 67.5366 66.1862 67.245 67.5538 66.6785C68.9215 66.112 70.1641 65.2817 71.2109 64.2349C72.2576 63.1882 73.088 61.9455 73.6545 60.5778C74.221 59.2102 74.5125 57.7444 74.5125 56.264C74.5125 54.7837 74.221 53.3179 73.6545 51.9502C73.088 50.5826 72.2576 49.3399 71.2109 48.2931C70.1641 47.2464 68.9215 46.4161 67.5538 45.8496C66.1862 45.2831 64.7203 44.9915 63.24 44.9915ZM31.6622 78.6879L29.1747 78.0555C10.6349 73.3704 0 65.418 0 56.2429C0 47.0679 10.6349 39.1154 29.1747 34.4304L31.6622 33.8033L32.3631 36.2696C34.2412 42.7397 36.6435 49.0459 39.5461 55.1257L40.0783 56.2482L39.5461 57.3707C36.6387 63.4484 34.2362 69.7551 32.3631 76.2268L31.6622 78.6879ZM28.0206 40.1905C13.9286 44.1483 5.28054 50.2035 5.28054 56.2429C5.28054 62.2771 13.9286 68.3323 28.0206 72.2954C29.744 66.8142 31.8248 61.4519 34.2497 56.2429C31.8221 51.0352 29.7412 45.6727 28.0206 40.1905ZM94.8178 78.6879L94.1169 76.2162C92.2407 69.7465 89.8365 63.4418 86.9287 57.3655L86.3964 56.2429L86.9287 55.1204C89.8354 49.0418 92.2395 42.7354 94.1169 36.2644L94.8178 33.798L97.3106 34.4251C115.845 39.1102 126.48 47.0626 126.48 56.2429C126.48 65.4233 115.845 73.3704 97.3106 78.0555L94.8178 78.6879ZM92.2303 56.2429C94.7599 61.7185 96.8521 67.0991 98.4594 72.2954C112.557 68.3323 121.199 62.2771 121.199 56.2429C121.199 50.2035 112.551 44.1536 98.4594 40.1905C96.7383 45.6725 94.6574 51.035 92.2303 56.2429ZM27.9837 40.1642L27.2828 37.7031C22.0708 19.3319 23.6518 6.1674 31.62 1.57196C39.4354 -2.93916 51.9833 2.38881 65.1319 15.8853L66.9237 17.7245L65.1319 19.5637C60.4598 24.4206 56.1911 29.6499 52.368 35.1998L51.6565 36.2169L50.4181 36.3223C43.6931 36.8525 37.0222 37.9276 30.4711 39.537L27.9837 40.1642ZM37.9756 5.22407C36.5633 5.22407 35.3143 5.52973 34.2603 6.13578C29.0219 9.15549 28.0944 19.6533 31.7043 33.8191C37.3202 32.5697 43.0116 31.6878 48.7422 31.1788C52.0488 26.4774 55.6612 21.9987 59.5563 17.7719C51.3351 9.76681 43.5513 5.22407 37.9756 5.22407ZM88.5097 112.532C88.5044 112.532 88.5044 112.532 88.5097 112.532C80.9999 112.532 71.3558 106.877 61.3481 96.6006L59.5563 94.7614L61.3481 92.9221C66.0189 88.0637 70.286 82.8326 74.1067 77.2808L74.8182 76.2637L76.0514 76.1583C82.7798 75.631 89.4543 74.5577 96.0089 72.9488L98.4963 72.3217L99.2025 74.7881C104.404 93.1488 102.828 106.318 94.86 110.909C92.9245 112.003 90.7329 112.563 88.5097 112.532ZM66.9237 94.7139C75.1449 102.719 82.9287 107.262 88.5044 107.262C89.9115 107.262 91.171 106.956 92.2197 106.35C97.4581 103.33 98.3909 92.8273 94.7757 78.6615C89.1583 79.9126 83.4651 80.7946 77.7325 81.3018C74.43 86.0065 70.8191 90.487 66.9237 94.7139ZM98.4963 40.1642L96.0089 39.537C89.4552 37.9229 82.7804 36.8478 76.0514 36.3223L74.8182 36.2169L74.1067 35.1998C70.2879 29.6482 66.0208 24.4187 61.3481 19.5637L59.5563 17.7245L61.3481 15.8853C74.4914 2.39408 87.034 -2.93389 94.86 1.57196C102.828 6.1674 104.409 19.3319 99.2025 37.6978L98.4963 40.1642ZM77.7325 31.1788C83.7508 31.7269 89.4688 32.6175 94.7757 33.8191C98.3909 19.6533 97.4581 9.15549 92.2197 6.13578C87.013 3.12661 77.2266 7.73786 66.9237 17.7719C70.8169 21.9989 74.4276 26.4775 77.7325 31.1788ZM37.9756 112.532C35.7506 112.564 33.557 112.004 31.62 110.909C23.6518 106.318 22.0708 93.154 27.2828 74.7881L27.9784 72.3217L30.4659 72.9488C36.5527 74.4824 43.2667 75.5628 50.4128 76.1583L51.6513 76.2637L52.3575 77.2808C56.1811 82.8319 60.4498 88.0629 65.1214 92.9221L66.9132 94.7614L65.1214 96.6006C55.1189 106.877 45.4748 112.532 37.9756 112.532ZM31.7043 78.6615C28.0891 92.8273 29.0219 103.33 34.2603 106.35C39.4618 109.317 49.2429 104.743 59.5563 94.7139C55.6628 90.484 52.0504 86.0037 48.7422 81.3018C43.0113 80.795 37.3198 79.913 31.7043 78.6615ZM63.24 81.9711C58.9028 81.9711 54.4444 81.7814 49.9807 81.4125L48.7422 81.3071L48.0308 80.29C45.506 76.6621 43.1324 72.9312 40.9163 69.107C38.7067 65.2797 36.6567 61.3625 34.7715 57.3655L34.2497 56.2429L34.7715 55.1204C36.6564 51.1232 38.7064 47.206 40.9163 43.3789C43.0981 39.6056 45.4959 35.8428 48.0308 32.1959L48.7422 31.1788L49.9807 31.0734C58.8061 30.3251 67.6791 30.3251 76.5046 31.0734L77.7378 31.1788L78.444 32.1959C83.4988 39.4531 87.9359 47.1214 91.7085 55.1204L92.2408 56.2429L91.7085 57.3655C87.9449 65.3692 83.5074 73.0383 78.444 80.29L77.7378 81.3071L76.5046 81.4125C72.0409 81.7814 67.5772 81.9711 63.24 81.9711ZM51.6618 76.2584C59.4614 76.8434 67.0186 76.8434 74.8235 76.2584C79.1808 69.8883 83.0495 63.1974 86.3964 56.2429C83.0555 49.2843 79.1847 42.5928 74.8182 36.2275C67.1105 35.6425 59.3695 35.6425 51.6618 36.2275C47.2934 42.5916 43.4225 49.2833 40.0836 56.2429C43.4341 63.1965 47.3045 69.8873 51.6618 76.2584Z" fill="#9234EA"/>
</svg>
