<svg width="127" height="124" viewBox="0 0 127 124" fill="none" xmlns="http://www.w3.org/2000/svg">
<path d="M63.24 0C54.9352 0 46.7117 1.63575 39.0391 4.81386C31.3665 7.99197 24.3949 12.6502 18.5226 18.5226C6.66277 30.3824 0 46.4677 0 63.24C0 91.1921 18.1499 114.907 43.2562 123.318C46.4182 123.824 47.43 121.863 47.43 120.156C47.43 118.701 47.43 114.717 47.43 109.468C29.9125 113.263 26.1814 100.994 26.1814 100.994C23.2723 93.6584 19.1617 91.698 19.1617 91.698C13.4069 87.7771 19.6044 87.9036 19.6044 87.9036C25.9284 88.3463 29.2801 94.4173 29.2801 94.4173C34.782 104.03 44.0783 101.184 47.683 99.6662C48.2521 95.5556 49.8964 92.7731 51.6671 91.1921C37.6278 89.6111 22.8929 84.1724 22.8929 60.078C22.8929 53.0584 25.296 47.43 29.4066 42.94C28.7742 41.359 26.5608 34.782 30.039 26.2446C30.039 26.2446 35.3512 24.5371 47.43 32.6951C52.426 31.3038 57.8646 30.6082 63.24 30.6082C68.6154 30.6082 74.054 31.3038 79.05 32.6951C91.1288 24.5371 96.441 26.2446 96.441 26.2446C99.9192 34.782 97.7058 41.359 97.0734 42.94C101.184 47.43 103.587 53.0584 103.587 60.078C103.587 84.2357 88.789 89.5478 74.6864 91.1288C76.9631 93.0893 79.05 96.9469 79.05 102.828V120.156C79.05 121.863 80.0618 123.887 83.2871 123.318C108.393 114.844 126.48 91.1921 126.48 63.24C126.48 54.9352 124.844 46.7117 121.666 39.0391C118.488 31.3665 113.83 24.3949 107.957 18.5226C102.085 12.6502 95.1135 7.99197 87.4409 4.81386C79.7683 1.63575 71.5448 0 63.24 0Z" fill="#9234EA"/>
</svg>
