<svg width="75" height="76" viewBox="0 0 127 76" fill="none" xmlns="http://www.w3.org/2000/svg">
<path d="M63.24 75.2972C61.6557 75.299 60.0867 74.9877 58.6231 74.3811C57.1595 73.7746 55.8302 72.8847 54.7116 71.7628L3.53271 20.5906C2.4127 19.4706 1.52426 18.141 0.918114 16.6776C0.311972 15.2142 -5.60059e-06 13.6458 0 12.0618C1.13111e-05 8.86292 1.27078 5.79503 3.53277 3.53306C5.79475 1.2711 8.86265 0.000345312 12.0616 0.000356623C15.2605 0.000367934 18.3284 1.27114 20.5903 3.53312L63.24 46.1765L105.89 3.53277C108.152 1.27078 111.22 1.12774e-05 114.418 0C117.617 -1.12773e-05 120.685 1.27074 122.947 3.53271C125.209 5.79467 126.48 8.86256 126.48 12.0615C126.48 15.2604 125.209 18.3283 122.947 20.5903L71.7684 71.7631C70.6498 72.885 69.3205 73.7748 67.8569 74.3813C66.3933 74.9878 64.8243 75.299 63.24 75.2972Z" fill="#9234EA"/>
</svg>
